<svg xmlns="http://www.w3.org/2000/svg" xmlns:xlink="http://www.w3.org/1999/xlink" width="500" zoomAndPan="magnify" viewBox="0 0 375 374.999991" height="500" preserveAspectRatio="xMidYMid meet" version="1.0"><defs><g/><clipPath id="cb5d9d08ff"><rect x="0" width="277" y="0" height="133"/></clipPath><clipPath id="09f0a4ed0d"><rect x="0" width="204" y="0" height="133"/></clipPath><clipPath id="091a6847d8"><path d="M 251.09375 272.105469 L 330.636719 272.105469 L 330.636719 346.914062 L 251.09375 346.914062 Z M 251.09375 272.105469 " clip-rule="nonzero"/></clipPath><clipPath id="2937a8870d"><path d="M 322.5 288.621094 L 313.570312 300.867188 C 313.265625 301.289062 313.175781 301.832031 313.339844 302.328125 C 313.5 302.828125 313.890625 303.21875 314.386719 303.378906 L 328.808594 308.074219 C 329.992188 308.457031 330.636719 309.726562 330.253906 310.910156 L 323.476562 331.859375 C 323.292969 332.429688 322.890625 332.898438 322.359375 333.171875 C 321.828125 333.441406 321.210938 333.488281 320.644531 333.304688 L 306.222656 328.613281 C 305.726562 328.449219 305.179688 328.535156 304.757812 328.84375 C 304.332031 329.152344 304.082031 329.644531 304.082031 330.164062 L 304.082031 344.664062 C 304.082031 345.261719 303.847656 345.832031 303.425781 346.253906 C 303.003906 346.675781 302.429688 346.914062 301.832031 346.914062 L 279.914062 346.914062 C 279.316406 346.914062 278.746094 346.675781 278.320312 346.253906 C 277.898438 345.832031 277.664062 345.261719 277.664062 344.664062 L 277.664062 330.164062 C 277.664062 329.644531 277.414062 329.152344 276.988281 328.84375 C 276.566406 328.535156 276.019531 328.449219 275.523438 328.613281 L 261.101562 333.304688 C 260.535156 333.488281 259.917969 333.441406 259.386719 333.171875 C 258.855469 332.898438 258.453125 332.429688 258.269531 331.859375 L 251.492188 310.910156 C 251.109375 309.726562 251.753906 308.457031 252.9375 308.074219 L 267.359375 303.378906 C 267.859375 303.21875 268.246094 302.828125 268.410156 302.328125 C 268.570312 301.832031 268.484375 301.289062 268.175781 300.867188 L 259.246094 288.621094 C 258.515625 287.617188 258.738281 286.207031 259.742188 285.476562 L 277.476562 272.542969 C 277.960938 272.191406 278.5625 272.046875 279.152344 272.136719 C 279.742188 272.230469 280.269531 272.554688 280.621094 273.035156 L 289.546875 285.28125 C 289.855469 285.703125 290.347656 285.953125 290.875 285.953125 C 291.398438 285.953125 291.890625 285.703125 292.199219 285.28125 L 301.125 273.035156 C 301.476562 272.554688 302.003906 272.230469 302.59375 272.136719 C 303.183594 272.046875 303.785156 272.191406 304.269531 272.542969 L 322.007812 285.476562 C 323.011719 286.207031 323.230469 287.617188 322.5 288.621094 Z M 322.5 288.621094 " clip-rule="nonzero"/></clipPath><clipPath id="be114e3055"><path d="M 0.09375 0.105469 L 79.636719 0.105469 L 79.636719 74.914062 L 0.09375 74.914062 Z M 0.09375 0.105469 " clip-rule="nonzero"/></clipPath><clipPath id="e9b5078c00"><path d="M 71.5 16.621094 L 62.570312 28.867188 C 62.265625 29.289062 62.175781 29.832031 62.339844 30.328125 C 62.5 30.828125 62.890625 31.21875 63.386719 31.378906 L 77.808594 36.074219 C 78.992188 36.457031 79.636719 37.726562 79.253906 38.910156 L 72.476562 59.859375 C 72.292969 60.429688 71.890625 60.898438 71.359375 61.171875 C 70.828125 61.441406 70.210938 61.488281 69.644531 61.304688 L 55.222656 56.613281 C 54.726562 56.449219 54.179688 56.535156 53.757812 56.84375 C 53.332031 57.152344 53.082031 57.644531 53.082031 58.164062 L 53.082031 72.664062 C 53.082031 73.261719 52.847656 73.832031 52.425781 74.253906 C 52.003906 74.675781 51.429688 74.914062 50.832031 74.914062 L 28.914062 74.914062 C 28.316406 74.914062 27.746094 74.675781 27.320312 74.253906 C 26.898438 73.832031 26.664062 73.261719 26.664062 72.664062 L 26.664062 58.164062 C 26.664062 57.644531 26.414062 57.152344 25.988281 56.84375 C 25.566406 56.535156 25.019531 56.449219 24.523438 56.613281 L 10.101562 61.304688 C 9.535156 61.488281 8.917969 61.441406 8.386719 61.171875 C 7.855469 60.898438 7.453125 60.429688 7.269531 59.859375 L 0.492188 38.910156 C 0.109375 37.726562 0.753906 36.457031 1.9375 36.074219 L 16.359375 31.378906 C 16.859375 31.21875 17.246094 30.828125 17.410156 30.328125 C 17.570312 29.832031 17.484375 29.289062 17.175781 28.867188 L 8.246094 16.621094 C 7.515625 15.617188 7.738281 14.207031 8.742188 13.476562 L 26.476562 0.542969 C 26.960938 0.191406 27.5625 0.046875 28.152344 0.136719 C 28.742188 0.230469 29.269531 0.554688 29.621094 1.035156 L 38.546875 13.28125 C 38.855469 13.703125 39.347656 13.953125 39.875 13.953125 C 40.398438 13.953125 40.890625 13.703125 41.199219 13.28125 L 50.125 1.035156 C 50.476562 0.554688 51.003906 0.230469 51.59375 0.136719 C 52.183594 0.046875 52.785156 0.191406 53.269531 0.542969 L 71.007812 13.476562 C 72.011719 14.207031 72.230469 15.617188 71.5 16.621094 Z M 71.5 16.621094 " clip-rule="nonzero"/></clipPath><clipPath id="f9f11e6af8"><rect x="0" width="80" y="0" height="75"/></clipPath></defs><g transform="matrix(1, 0, 0, 1, 49, 150)"><g clip-path="url(#cb5d9d08ff)"><g fill="#ffffff" fill-opacity="1"><g transform="translate(1.097403, 112.425533)"><g><path d="M 2.1875 -72.734375 L 3.296875 0 L 24.140625 -0.65625 L 24.90625 -57.046875 L 50.90625 -56.28125 L 50.25 0 L 64.5 -0.65625 L 63.078125 -55.1875 L 92.8125 -53.3125 L 92.8125 -0.65625 L 114.09375 0.65625 L 112.109375 -69.109375 Z M 2.1875 -72.734375 "/></g></g></g><g fill="#ffffff" fill-opacity="1"><g transform="translate(117.379088, 112.425533)"><g><path d="M 24.796875 -42.78125 L 24.796875 -55.1875 L 78.328125 -54.625 L 78.328125 -73.9375 L 2.1875 -75.03125 L 2.96875 -0.21875 L 76.25 0.21875 L 75.578125 -17.875 L 25.34375 -19.203125 L 25.5625 -32.46875 L 66.8125 -31.8125 L 67.46875 -42.015625 Z M 24.796875 -42.78125 "/></g></g></g><g fill="#ffffff" fill-opacity="1"><g transform="translate(197.898666, 112.425533)"><g><path d="M 74.703125 -51.5625 L 75.8125 -72.953125 L 2.1875 -73.828125 L 2.1875 -54.84375 L 28.1875 -53.859375 L 29.515625 0.4375 L 51.015625 -0.21875 L 49.359375 -53.09375 Z M 74.703125 -51.5625 "/></g></g></g></g></g><g transform="matrix(1, 0, 0, 1, 51, 234)"><g clip-path="url(#09f0a4ed0d)"><g fill="#ffffff" fill-opacity="1"><g transform="translate(0.316734, 111.745476)"><g><path d="M 2.1875 -75.578125 L 4.390625 0.546875 L 23.59375 0 L 24.140625 -34.671875 L 33.890625 -34.453125 L 60.5625 0.984375 L 85.234375 0.546875 L 57.8125 -34.890625 L 75.03125 -35.21875 L 76.25 -76.90625 Z M 47.171875 -47.5 L 23.140625 -47.390625 L 23.140625 -60.453125 L 46.734375 -60.671875 Z M 47.171875 -47.5 "/></g></g></g><g fill="#ffffff" fill-opacity="1"><g transform="translate(87.734394, 111.745476)"><g><path d="M 3.625 -77.5625 L 2.1875 -0.109375 L 25.453125 -0.109375 L 25.453125 -77.671875 Z M 3.625 -77.5625 "/></g></g></g><g fill="#ffffff" fill-opacity="1"><g transform="translate(115.374606, 111.745476)"><g><path d="M 4.28125 -68.671875 L 32.46875 -35.984375 L 2.1875 -0.21875 L 28.859375 0 L 45.203125 -21.5 L 62.421875 0 L 85.671875 0 L 56.9375 -36.53125 L 82.5 -75.03125 L 57.046875 -75.03125 L 43.65625 -53.53125 L 29.84375 -69.984375 Z M 4.28125 -68.671875 "/></g></g></g></g></g><g clip-path="url(#091a6847d8)"><g clip-path="url(#2937a8870d)"><g transform="matrix(1, 0, 0, 1, 251, 272)"><g clip-path="url(#f9f11e6af8)"><g clip-path="url(#be114e3055)"><g clip-path="url(#e9b5078c00)"><path fill="#0097b2" d="M -0.203125 -0.78125 L 79.929688 -0.78125 L 79.929688 74.914062 L -0.203125 74.914062 Z M -0.203125 -0.78125 " fill-opacity="1" fill-rule="nonzero"/></g></g></g></g></g></g></svg>