<?xml version="1.0" encoding="UTF-8"?>
<svg version="1.1" xmlns="http://www.w3.org/2000/svg" width="500" height="500">
<path d="M0 0 C49.5 1.65 99 3.3 150 5 C152 68 152 68 152 99 C142.32758791 99 132.65098922 98.64339928 123 98 C123 74.57 123 51.14 123 27 C118.38 27 113.76 27 109 27 C104.52928045 26.71387395 100.08467452 26.39570254 95.625 26 C94.49578125 25.90460938 93.3665625 25.80921875 92.203125 25.7109375 C89.46825829 25.47916913 86.73396264 25.24216018 84 25 C84.23771118 26.24124634 84.23771118 26.24124634 84.48022461 27.50756836 C85.04567672 31.30690719 85.2259524 35.04657837 85.31640625 38.87890625 C85.34764587 40.01499077 85.34764587 40.01499077 85.3795166 41.17402649 C85.44534019 43.63675346 85.50432763 46.09958127 85.5625 48.5625 C85.58367889 49.40049133 85.60485779 50.23848267 85.62667847 51.10186768 C86.02041456 66.73764401 86.10979987 82.35961854 86 98 C79.4 98 72.8 98 66 98 C65.93458162 81.93160992 66.19469925 65.87767159 66.5 49.8125 C66.54833685 47.20117483 66.59651503 44.58984671 66.64453125 41.97851562 C66.76119485 35.65230873 66.87980482 29.32614074 67 23 C66.07662842 23.00523682 65.15325684 23.01047363 64.2019043 23.01586914 C60.77465186 23.03291585 57.3474445 23.0454525 53.92016602 23.05493164 C52.43708587 23.05995903 50.95401067 23.06678185 49.47094727 23.07543945 C47.33869199 23.08757482 45.20650227 23.09324425 43.07421875 23.09765625 C41.79119873 23.10289307 40.50817871 23.10812988 39.1862793 23.11352539 C36 23 36 23 33 22 C33.00222061 22.83414429 33.00444122 23.66828857 33.00672913 24.52770996 C33.02681883 32.41306952 33.04201827 40.29842041 33.05181217 48.18379974 C33.05701667 52.23712766 33.06406985 56.29043432 33.07543945 60.34375 C33.08635516 64.26003731 33.09229515 68.17630424 33.09487724 72.09260559 C33.0967159 73.58201925 33.1003062 75.07143187 33.10573006 76.56083679 C33.11305595 78.65711828 33.11398612 80.75331702 33.11352539 82.84960938 C33.115746 84.03985718 33.11796661 85.23010498 33.12025452 86.4564209 C32.98913599 90.32013328 32.47951041 94.16391669 32 98 C22.76 98 13.52 98 4 98 C2.87490388 85.62394266 2.87490388 85.62394266 2.79467773 80.01000977 C2.77473251 78.75402481 2.75478729 77.49803986 2.73423767 76.20399475 C2.71722755 74.86646688 2.70034975 73.52893733 2.68359375 72.19140625 C2.66292624 70.7752994 2.64192805 69.35919734 2.62062073 67.94309998 C2.57696771 64.98561503 2.53602798 62.02811031 2.49731445 59.07055664 C2.44848095 55.34256253 2.39480713 51.61465959 2.33934593 47.8867588 C2.10754297 32.25770769 1.92475265 16.63114382 2 1 C1.34 0.67 0.68 0.34 0 0 Z " fill="#0A0910" transform="translate(67,287)"/>
<path d="M0 0 C-0.12019156 5.38543204 -0.24451259 10.77074904 -0.37231445 16.15600586 C-0.41505761 17.97987418 -0.45676086 19.80376723 -0.49731445 21.62768555 C-0.76085892 33.4416355 -1.23689126 45.20708429 -2 57 C-12.395 57.495 -12.395 57.495 -23 58 C-20.97875 60.59875 -18.9575 63.1975 -16.875 65.875 C-16.19614746 66.74801758 -15.51729492 67.62103516 -14.81787109 68.52050781 C-11.60207946 72.65597209 -8.38475656 76.79022729 -5.1640625 80.921875 C-4.54934082 81.71094238 -3.93461914 82.50000977 -3.30126953 83.31298828 C-2.13355049 84.81180901 -0.96528962 86.31020783 0.20361328 87.80810547 C1.80782806 89.86793826 3.40482329 91.93316301 5 94 C5.57363281 94.73573242 6.14726562 95.47146484 6.73828125 96.22949219 C7.28871094 96.94524414 7.83914062 97.66099609 8.40625 98.3984375 C8.90447266 99.04216309 9.40269531 99.68588867 9.91601562 100.34912109 C11 102 11 102 11 104 C6.44696817 104.34316256 1.89581358 104.61938057 -2.6640625 104.85351562 C-4.96160584 104.99759234 -7.24119501 105.22054129 -9.53125 105.453125 C-20.10348154 106.31319536 -20.10348154 106.31319536 -24.578125 103.21484375 C-26.52648116 100.88042442 -28.1887132 98.49782698 -29.78027344 95.90917969 C-32.23966418 92.05961291 -35.07419924 88.46601806 -37.8125 84.8125 C-41.36133698 80.04205693 -44.85524004 75.26659069 -48.109375 70.2890625 C-48.60848389 69.55453857 -49.10759277 68.82001465 -49.62182617 68.06323242 C-50.54782277 66.69691275 -51.44427239 65.3098352 -52.30200195 63.8996582 C-54.65330096 60.50186056 -56.18787182 59.21654323 -60.26513672 58.12939453 C-63.51272046 57.6223581 -66.72271759 57.24079357 -70 57 C-69.99214478 58.81588623 -69.99214478 58.81588623 -69.98413086 60.66845703 C-69.96598319 65.17479712 -69.95453233 69.681134 -69.94506836 74.1875 C-69.94005045 76.13509668 -69.93323466 78.08268961 -69.92456055 80.03027344 C-69.91238348 82.83529589 -69.90674617 85.64026837 -69.90234375 88.4453125 C-69.89718246 89.31116974 -69.89202118 90.17702698 -69.88670349 91.06912231 C-69.88659019 92.29971878 -69.88659019 92.29971878 -69.88647461 93.55517578 C-69.884254 94.27021271 -69.88203339 94.98524963 -69.87974548 95.72195435 C-70.02653062 98.50258371 -70.54223086 101.25338518 -71 104 C-79.58 104 -88.16 104 -97 104 C-97.81670809 94.36275905 -98.27059139 84.75081658 -98.53515625 75.0859375 C-98.5783722 73.58061165 -98.62178786 72.07529152 -98.66539001 70.56997681 C-98.75558352 67.43195824 -98.84358378 64.29388839 -98.92993164 61.15576172 C-99.03913364 57.19230614 -99.15356133 53.22902217 -99.26949501 49.26575851 C-99.72848104 33.51032286 -100.17838612 17.76404757 -100 2 C-86.36434499 0.71614385 -72.68421646 0.65672343 -59 0.4375 C-56.48502568 0.3946339 -53.97005172 0.35174645 -51.45507812 0.30883789 C-34.30222668 0.02544913 -17.15510511 -0.14595312 0 0 Z M-71 23 C-71 28.28 -71 33.56 -71 39 C-60.77 39 -50.54 39 -40 39 C-39.51492875 28.25310073 -39.51492875 28.25310073 -41 23 C-50.9 23 -60.8 23 -71 23 Z " fill="#0A0910" transform="translate(171,393)"/>
<path d="M0 0 C1.77954826 0.02545395 1.77954826 0.02545395 3.595047 0.05142212 C4.57636848 0.063424 4.57636848 0.063424 5.57751465 0.07566833 C7.76550552 0.10377147 9.95331032 0.13926166 12.14118958 0.17495728 C13.6821442 0.1967706 15.22310405 0.21821812 16.7640686 0.23931885 C20.02191107 0.28501691 23.2796775 0.3341743 26.53742981 0.38589478 C30.61698122 0.45054552 34.69658906 0.50851684 38.77627373 0.56403732 C58.97903508 0.84121877 79.15606641 1.35248988 99.34822083 2.08901978 C99.34822083 10.99901978 99.34822083 19.90901978 99.34822083 29.08901978 C75.58822083 28.75901978 51.82822083 28.42901978 27.34822083 28.08901978 C27.67822083 33.03901978 28.00822083 37.98901978 28.34822083 43.08901978 C46.82822083 43.41901978 65.30822083 43.74901978 84.34822083 44.08901978 C84.34822083 56.08901978 84.34822083 56.08901978 83.34822083 59.08901978 C45.73048382 59.28779653 45.73048382 59.28779653 28.34822083 58.08901978 C28.34822083 63.69901978 28.34822083 69.30901978 28.34822083 75.08901978 C29.49548645 75.07741821 30.64275208 75.06581665 31.82478333 75.05386353 C43.79490997 74.97529559 55.75393511 75.16270691 67.71974182 75.46234131 C69.42352473 75.50495513 71.12734231 75.54620571 72.83119202 75.58605957 C75.26278852 75.64374852 77.69416261 75.70728459 80.12556458 75.77261353 C80.85092911 75.78933105 81.57629364 75.80604858 82.32363892 75.82327271 C86.74772525 75.95113367 90.98789854 76.38778897 95.34822083 77.08901978 C95.5202053 79.19275847 95.68546888 81.2970467 95.84822083 83.40151978 C95.94103333 84.57327759 96.03384583 85.7450354 96.12947083 86.95230103 C96.45829226 91.99380157 96.38977677 97.03939473 96.34822083 102.08901978 C63.33524947 102.24394311 30.3529338 101.82496885 -2.65177917 101.08901978 C-2.78473391 92.33265727 -2.9152388 83.57626219 -3.0429306 74.81982136 C-3.10234551 70.75027538 -3.16248838 66.68074337 -3.22453308 62.61123657 C-3.47442754 46.18121766 -3.69971357 29.75152405 -3.74552917 13.31948853 C-3.75201477 12.08862015 -3.75850037 10.85775177 -3.7651825 9.58958435 C-3.76578674 8.4771788 -3.76639099 7.36477325 -3.76701355 6.21865845 C-3.76906799 5.24643845 -3.77112244 4.27421844 -3.77323914 3.27253723 C-3.59337796 0.03912585 -3.2662411 0.10964716 0 0 Z " fill="#0A0911" transform="translate(227.6517791748047,283.9109802246094)"/>
<path d="M0 0 C4.30485112 1.53459971 6.41493076 4.8185714 9 8.375 C11.78921661 12.16157285 14.5608871 15.76787075 18 19 C18.22945313 18.48824219 18.45890625 17.97648437 18.6953125 17.44921875 C20.50432991 14.05324895 22.66600285 10.95854988 24.875 7.8125 C25.30941406 7.17119141 25.74382812 6.52988281 26.19140625 5.86914062 C29.46195391 1.21867721 29.46195391 1.21867721 31.96728516 0.20043945 C35.47541119 -0.14548554 37.84397215 2.33902809 40.5 4.375 C41.10859863 4.82601074 41.71719727 5.27702148 42.34423828 5.74169922 C44.238514 7.14950725 46.11932683 8.5740918 48 10 C49.19442242 10.89181834 50.3897042 11.78248714 51.5859375 12.671875 C54.40059948 14.76816071 57.20347262 16.87955617 60 19 C59.5853677 24.3902199 56.48058685 28.06129627 53.4375 32.3125 C52.91736328 33.05306641 52.39722656 33.79363281 51.86132812 34.55664062 C50.58156882 36.37648184 49.29437782 38.19054184 48 40 C50.13734875 42.13734875 51.23932484 42.55619135 54.0625 43.4375 C54.85914063 43.69273437 55.65578125 43.94796875 56.4765625 44.2109375 C57.30929687 44.47132813 58.14203125 44.73171875 59 45 C60.64760672 45.51519591 62.29353685 46.03579336 63.9375 46.5625 C64.66839844 46.79066406 65.39929688 47.01882813 66.15234375 47.25390625 C68 48 68 48 70 50 C69.69683276 56.71561373 67.19891467 62.99400635 65.0625 69.3125 C64.52206055 70.95702148 64.52206055 70.95702148 63.97070312 72.63476562 C63.62072266 73.67955078 63.27074219 74.72433594 62.91015625 75.80078125 C62.59183838 76.75122314 62.27352051 77.70166504 61.94555664 78.6809082 C61 81 61 81 59 83 C53.60231056 82.62563314 48.66932123 81.10551023 43.5625 79.4375 C42.83095703 79.20353516 42.09941406 78.96957031 41.34570312 78.72851562 C39.56219821 78.15732778 37.78086417 77.57936877 36 77 C35.98018066 77.65597168 35.96036133 78.31194336 35.93994141 78.98779297 C35.84487493 81.95061069 35.73512248 84.91270532 35.625 87.875 C35.5940625 88.90753906 35.563125 89.94007813 35.53125 91.00390625 C35.49257813 91.99003906 35.45390625 92.97617187 35.4140625 93.9921875 C35.36693115 95.35899658 35.36693115 95.35899658 35.31884766 96.75341797 C35 99 35 99 33 101 C30.50256138 101.18721852 28.11811317 101.25579767 25.62109375 101.23046875 C24.89382584 101.23001053 24.16655792 101.22955231 23.41725159 101.2290802 C21.87979501 101.22605836 20.34234148 101.21817405 18.80493164 101.20581055 C16.44341265 101.18754573 14.08228539 101.1853009 11.72070312 101.18554688 C10.22916326 101.18063203 8.73762606 101.17480386 7.24609375 101.16796875 C6.53569443 101.16685593 5.8252951 101.1657431 5.09336853 101.16459656 C0.11605365 101.11605365 0.11605365 101.11605365 -1 100 C-1.15714654 98.36743242 -1.25085414 96.72864662 -1.31640625 95.08984375 C-1.37924805 93.60581055 -1.37924805 93.60581055 -1.44335938 92.09179688 C-1.48267578 91.05087891 -1.52199219 90.00996094 -1.5625 88.9375 C-1.60568359 87.89271484 -1.64886719 86.84792969 -1.69335938 85.77148438 C-1.79981225 83.18113116 -1.9018276 80.59067814 -2 78 C-7.75526191 78.68515023 -12.71366191 80.18251818 -18.1328125 82.16015625 C-20.92686976 82.97857902 -23.11018464 83.16407377 -26 83 C-28.69780864 76.6839539 -31.0252327 70.24473611 -33.25 63.75 C-33.52021973 62.98187988 -33.79043945 62.21375977 -34.06884766 61.42236328 C-35.51500073 57.13598418 -36.32150383 53.58873643 -36 49 C-32.71010914 47.82828244 -29.41780898 46.66348912 -26.125 45.5 C-25.18785156 45.16613281 -24.25070312 44.83226562 -23.28515625 44.48828125 C-22.38925781 44.17246094 -21.49335938 43.85664063 -20.5703125 43.53125 C-19.74289551 43.23798828 -18.91547852 42.94472656 -18.06298828 42.64257812 C-16 42 -16 42 -14 42 C-16.42455122 36.78091733 -19.54350673 32.30459992 -23.03515625 27.76757812 C-24.85152077 25.27377472 -25.97440785 23.51649612 -26.12890625 20.3984375 C-24.55333427 17.05102853 -22.12241611 15.28548515 -19.1875 13.1875 C-18.32475464 12.54772217 -18.32475464 12.54772217 -17.44458008 11.89501953 C-11.76849152 7.72764694 -5.91660667 3.81647781 0 0 Z " fill="#0196B1" transform="translate(371,397)"/>
<path d="M0 0 C1.4282618 0.00031703 2.85654759 0.01163717 4.28466797 0.03173828 C5.41242142 0.03598312 5.41242142 0.03598312 6.56295776 0.04031372 C8.96775125 0.05152204 11.37217428 0.07662726 13.77685547 0.10205078 C15.40575635 0.11207976 17.03466305 0.12120576 18.66357422 0.12939453 C22.65981103 0.15146343 26.65577041 0.18599728 30.65185547 0.22705078 C29.02914232 4.97496794 26.43517893 8.84477639 23.67138672 12.98486328 C23.1803093 13.72856171 22.68923187 14.47226013 22.18327332 15.23849487 C20.61452849 17.61250996 19.03969517 19.98240797 17.46435547 22.35205078 C16.42420643 23.92207485 15.38448865 25.49238472 14.34521484 27.06298828 C13.83844208 27.82867126 13.33166931 28.59435425 12.80953979 29.38323975 C11.32307183 31.63199359 9.84008754 33.88301535 8.35742188 36.13427734 C6.6967744 38.6552427 5.01934681 41.16253782 3.31738281 43.65576172 C2.34406006 45.11030762 2.34406006 45.11030762 1.35107422 46.59423828 C0.51902466 47.81409424 0.51902466 47.81409424 -0.32983398 49.05859375 C-1.53209615 51.14599228 -1.53209615 51.14599228 -1.1628418 53.31787109 C0.26715246 56.66895143 2.71826888 59.3225425 5.02685547 62.10205078 C6.1277134 63.4518241 7.22796063 64.80209569 8.32763672 66.15283203 C9.16415771 67.17497803 9.16415771 67.17497803 10.01757812 68.21777344 C12.45361997 71.21278753 14.83660204 74.24818799 17.21435547 77.28955078 C20.04485363 80.90819093 22.8818311 84.52056799 25.74951172 88.10986328 C26.25603271 88.74657959 26.76255371 89.3832959 27.28442383 90.03930664 C28.25715145 91.26154136 29.23307704 92.48123988 30.21264648 93.69799805 C32.20292614 96.20578717 33.63027777 98.1623177 34.65185547 101.22705078 C4.5416618 103.47527148 4.5416618 103.47527148 -1.57080078 98.78955078 C-3.99686471 96.19833227 -5.71224763 93.27016158 -7.31933594 90.11865234 C-9.13741924 86.77586415 -11.5594491 83.8932584 -13.91064453 80.91455078 C-14.33007324 80.34583252 -14.74950195 79.77711426 -15.18164062 79.19116211 C-16.18937543 77.83301138 -17.26317945 76.5243378 -18.34814453 75.22705078 C-19.00814453 75.22705078 -19.66814453 75.22705078 -20.34814453 75.22705078 C-21.63162449 76.57674208 -21.63162449 76.57674208 -22.88720703 78.37548828 C-23.38607422 79.05224609 -23.88494141 79.72900391 -24.39892578 80.42626953 C-24.91841797 81.14427734 -25.43791016 81.86228516 -25.97314453 82.60205078 C-27.51977667 84.71912907 -29.07052165 86.82627667 -30.66943359 88.90429688 C-32.42398842 91.23263726 -32.42398842 91.23263726 -33.86279297 93.97558594 C-36.06933197 97.55470144 -38.00797993 100.61072609 -42.27374268 101.73419189 C-47.95803749 102.47620331 -53.64142537 102.13733291 -59.34814453 101.85205078 C-61.09411086 101.80183279 -62.84021594 101.75621539 -64.58642578 101.71533203 C-68.84378353 101.60568876 -73.09442744 101.43351106 -77.34814453 101.22705078 C-73.46363123 95.90943295 -69.39321648 90.84980627 -65.03564453 85.91455078 C-60.46484443 80.6905941 -55.99488095 75.40682033 -51.62548828 70.01220703 C-47.27305014 64.68924237 -42.80285772 59.46446124 -38.34814453 54.22705078 C-40.0256389 50.19517835 -42.81644824 47.15799619 -45.66064453 43.91455078 C-46.18827393 43.30571045 -46.71590332 42.69687012 -47.25952148 42.06958008 C-48.95164206 40.11847417 -50.64943678 38.17242284 -52.34814453 36.22705078 C-74.34814453 10.97344015 -74.34814453 10.97344015 -74.34814453 9.22705078 C-69.82761083 8.88957025 -65.30667508 8.55780339 -60.78564453 8.22705078 C-59.50882813 8.13166016 -58.23201172 8.03626953 -56.91650391 7.93798828 C-55.67578125 7.84775391 -54.43505859 7.75751953 -53.15673828 7.66455078 C-52.02034912 7.58076172 -50.88395996 7.49697266 -49.71313477 7.41064453 C-39.8089218 6.87027102 -39.8089218 6.87027102 -36.97705078 9.06298828 C-35.95417969 10.31982422 -35.95417969 10.31982422 -34.91064453 11.60205078 C-34.15783203 12.50568359 -33.40501953 13.40931641 -32.62939453 14.34033203 C-31.87658203 15.29294922 -31.12376953 16.24556641 -30.34814453 17.22705078 C-29.59533203 18.16935547 -28.84251953 19.11166016 -28.06689453 20.08251953 C-26.69116605 21.80965692 -25.32663464 23.5458141 -23.97705078 25.29345703 C-22.48492751 27.32362586 -22.48492751 27.32362586 -20.34814453 28.22705078 C-19.94499023 27.14460083 -19.94499023 27.14460083 -19.53369141 26.0402832 C-18.35287465 23.23827507 -16.98055136 20.79742008 -15.37939453 18.21533203 C-14.80833984 17.29300781 -14.23728516 16.37068359 -13.64892578 15.42041016 C-13.05466797 14.46972656 -12.46041016 13.51904297 -11.84814453 12.53955078 C-11.25388672 11.57726562 -10.65962891 10.61498047 -10.04736328 9.62353516 C-4.24277891 0.28771944 -4.24277891 0.28771944 0 0 Z " fill="#090810" transform="translate(301.34814453125,394.77294921875)"/>
<path d="M0 0 C23.25548974 -0.14444404 46.49825553 0.11507179 69.75 0.5 C70.47252583 0.51195782 71.19505165 0.52391563 71.9394722 0.53623581 C80.95973255 0.68597067 89.97990345 0.84068773 99 1 C98.86109398 5.25025618 98.71268006 9.50012842 98.5625 13.75 C98.52318359 14.9565625 98.48386719 16.163125 98.44335938 17.40625 C98.40146484 18.56640625 98.35957031 19.7265625 98.31640625 20.921875 C98.27974854 21.99018555 98.24309082 23.05849609 98.20532227 24.15917969 C98 27 98 27 97 31 C86.11 30.34 75.22 29.68 64 29 C64.66 52.1 65.32 75.2 66 99 C58.8206354 99.65266951 51.97284013 100.13620105 44.8125 100.0625 C43.95591797 100.05798828 43.09933594 100.05347656 42.21679688 100.04882812 C40.14449967 100.03725105 38.07223942 100.01932659 36 100 C35.73834987 91.35066483 35.47750935 82.70130574 35.21769714 74.05191517 C35.09702567 70.0354932 34.97607726 66.01907997 34.85449219 62.00268555 C34.73712659 58.1253368 34.62049339 54.24796664 34.50436401 50.37058067 C34.45997094 48.89263819 34.41531574 47.41470356 34.37039185 45.93677711 C34.30742799 43.86387756 34.24540333 41.79095183 34.18359375 39.71801758 C34.14806396 38.53887283 34.11253418 37.35972809 34.07592773 36.14485168 C34.01033481 33.42805768 33.98501009 30.71737883 34 28 C32.6682373 27.96241577 32.6682373 27.96241577 31.30957031 27.92407227 C28.00703963 27.82878203 24.70467541 27.72955793 21.40234375 27.62768555 C19.97465612 27.58444682 18.54692046 27.54276415 17.11914062 27.50268555 C15.06365504 27.44471398 13.00840872 27.38109825 10.953125 27.31640625 C9.71723633 27.27974854 8.48134766 27.24309082 7.20800781 27.20532227 C4 27 4 27 0 26 C0 17.42 0 8.84 0 0 Z " fill="#0A0910" transform="translate(332,286)"/>
<path d="M0 0 C9.9 0 19.8 0 30 0 C30 34.32 30 68.64 30 104 C19.44 104 8.88 104 -2 104 C-1.34 69.68 -0.68 35.36 0 0 Z " fill="#0A0910" transform="translate(189,392)"/>
<path d="M0 0 C0 0.66 0 1.32 0 2 C-1.65 2 -3.3 2 -5 2 C-5.33 2.66 -5.66 3.32 -6 4 C-7.65 3.67 -9.3 3.34 -11 3 C-10.67 3.99 -10.34 4.98 -10 6 C-10.99 7.485 -10.99 7.485 -12 9 C-12.99 8.34 -13.98 7.68 -15 7 C-15 6.34 -15 5.68 -15 5 C-15.66 5 -16.32 5 -17 5 C-16.42547254 8.93075644 -16.42547254 8.93075644 -14 12 C-14.33 12.33 -14.66 12.66 -15 13 C-15.04080783 14.99958364 -15.04254356 17.00045254 -15 19 C-18.31757362 14.02363957 -19.11539283 9.90976128 -19 4 C-16.77585391 3.13020539 -14.54727408 2.27916816 -12.3125 1.4375 C-11.68666016 1.19064453 -11.06082031 0.94378906 -10.41601562 0.68945312 C-6.5479443 -0.74841632 -3.96399767 -1.26575069 0 0 Z " fill="#0F90A7" transform="translate(354,442)"/>
<path d="M0 0 C1.4540625 0.0309375 1.4540625 0.0309375 2.9375 0.0625 C1.38048069 4.73355792 -1.14697373 8.14955685 -4.0625 12.0625 C-2.02981398 14.22593011 -2.02981398 14.22593011 0.9375 16.0625 C-4.9375 15.1875 -4.9375 15.1875 -6.0625 14.0625 C-6.10330783 12.06291636 -6.10504356 10.06204746 -6.0625 8.0625 C-5.0725 8.0625 -4.0825 8.0625 -3.0625 8.0625 C-3.3409375 6.3609375 -3.3409375 6.3609375 -3.625 4.625 C-3.769375 3.449375 -3.91375 2.27375 -4.0625 1.0625 C-3.0625 0.0625 -3.0625 0.0625 0 0 Z " fill="#0E91A6" transform="translate(423.0625,424.9375)"/>
<path d="M0 0 C5.23175837 -0.38281159 8.37802694 0.78145293 13 3 C10.09907498 4.93395001 9.10325263 5.30131941 5.8125 5.625 C4.554375 5.74875 3.29625 5.8725 2 6 C1.34 4.02 0.68 2.04 0 0 Z " fill="#1392A8" transform="translate(343,474)"/>
<path d="M0 0 C0.99 0.33 1.98 0.66 3 1 C2.13375 1.309375 2.13375 1.309375 1.25 1.625 C-1.81410544 3.49750888 -3.15539968 5.96958519 -5 9 C-5.99 8.67 -6.98 8.34 -8 8 C-8.99 9.485 -8.99 9.485 -10 11 C-10.99 10.34 -11.98 9.68 -13 9 C-10.90421865 7.4662827 -8.79977463 5.94819163 -6.6875 4.4375 C-6.09259766 3.99986328 -5.49769531 3.56222656 -4.88476562 3.11132812 C-3.31029927 1.99424864 -1.65793081 0.98897741 0 0 Z " fill="#128DA0" transform="translate(371,397)"/>
<path d="M0 0 C0.33 0.66 0.66 1.32 1 2 C0.34 2 -0.32 2 -1 2 C-1.226875 2.78375 -1.45375 3.5675 -1.6875 4.375 C-3 7 -3 7 -5.4375 8.375 C-8 9 -8 9 -11 8 C-7.37 5.36 -3.74 2.72 0 0 Z " fill="#128EA2" transform="translate(357,407)"/>
<path d="M0 0 C1.485 0.99 1.485 0.99 3 2 C2.45144652 6.571279 1.58255197 10.67435795 0 15 C-0.33 15 -0.66 15 -1 15 C-1 12.36 -1 9.72 -1 7 C-0.34 7 0.32 7 1 7 C0.67 4.69 0.34 2.38 0 0 Z " fill="#1C8A9C" transform="translate(438,445)"/>
<path d="M0 0 C2.475 0.495 2.475 0.495 5 1 C5.79953138 4.28696233 6.09658936 5.71023192 5 9 C4.16094435 7.87926138 3.32892169 6.75325453 2.5 5.625 C2.0359375 4.99851562 1.571875 4.37203125 1.09375 3.7265625 C0 2 0 2 0 0 Z " fill="#158DA2" transform="translate(351,427)"/>
<path d="M0 0 C6.24675325 6.07792208 6.24675325 6.07792208 8 9 C7.67 9.99 7.34 10.98 7 12 C3.57583541 9.71722361 3.854914 9.63338448 3 6 C2.01268258 4.65724831 1.01405257 3.32267727 0 2 C0 1.34 0 0.68 0 0 Z " fill="#148C9B" transform="translate(374,399)"/>
<path d="M0 0 C2.6875 0.875 2.6875 0.875 5 2 C4.01 2.495 4.01 2.495 3 3 C2.01 2.67 1.02 2.34 0 2 C-0.268125 2.639375 -0.53625 3.27875 -0.8125 3.9375 C-2 6 -2 6 -5 7 C-3.75023244 3.34683329 -3.32901247 2.21934164 0 0 Z " fill="#19879C" transform="translate(403,397)"/>
<path d="M0 0 C0.99 0 1.98 0 3 0 C2.67 1.65 2.34 3.3 2 5 C4.475 5.99 4.475 5.99 7 7 C5.1875 7.625 5.1875 7.625 3 8 C2.01 7.34 1.02 6.68 0 6 C-0.1875 2.875 -0.1875 2.875 0 0 Z " fill="#178CA1" transform="translate(417,433)"/>
<path d="M0 0 C0.99 0.99 1.98 1.98 3 3 C3.66 2.67 4.32 2.34 5 2 C5 3.98 5 5.96 5 8 C4.01 8.495 4.01 8.495 3 9 C0.70620251 5.55930376 0 4.27709699 0 0 Z " fill="#118DA3" transform="translate(345,416)"/>
<path d="M0 0 C0.93423645 3.01031744 1.04449911 3.86650268 0 7 C-1.32 6.34 -2.64 5.68 -4 5 C-2.68 3.35 -1.36 1.7 0 0 Z " fill="#128EA2" transform="translate(397,404)"/>
<path d="" fill="#FFFFFF" transform="translate(0,0)"/>
<path d="" fill="#FFFFFF" transform="translate(0,0)"/>
<path d="" fill="#FFFFFF" transform="translate(0,0)"/>
<path d="" fill="#FFFFFF" transform="translate(0,0)"/>
<path d="" fill="#FFFFFF" transform="translate(0,0)"/>
<path d="" fill="#FFFFFF" transform="translate(0,0)"/>
<path d="" fill="#FFFFFF" transform="translate(0,0)"/>
<path d="" fill="#FFFFFF" transform="translate(0,0)"/>
<path d="" fill="#FFFFFF" transform="translate(0,0)"/>
<path d="" fill="#FFFFFF" transform="translate(0,0)"/>
<path d="" fill="#FFFFFF" transform="translate(0,0)"/>
<path d="" fill="#FFFFFF" transform="translate(0,0)"/>
<path d="" fill="#FFFFFF" transform="translate(0,0)"/>
<path d="" fill="#FFFFFF" transform="translate(0,0)"/>
<path d="" fill="#FFFFFF" transform="translate(0,0)"/>
<path d="" fill="#FFFFFF" transform="translate(0,0)"/>
<path d="" fill="#FFFFFF" transform="translate(0,0)"/>
<path d="" fill="#FFFFFF" transform="translate(0,0)"/>
<path d="" fill="#FFFFFF" transform="translate(0,0)"/>
<path d="" fill="#FFFFFF" transform="translate(0,0)"/>
<path d="" fill="#FFFFFF" transform="translate(0,0)"/>
<path d="" fill="#FFFFFF" transform="translate(0,0)"/>
<path d="" fill="#FFFFFF" transform="translate(0,0)"/>
<path d="" fill="#FFFFFF" transform="translate(0,0)"/>
<path d="" fill="#FFFFFF" transform="translate(0,0)"/>
<path d="" fill="#FFFFFF" transform="translate(0,0)"/>
<path d="" fill="#FFFFFF" transform="translate(0,0)"/>
<path d="" fill="#FFFFFF" transform="translate(0,0)"/>
<path d="" fill="#FFFFFF" transform="translate(0,0)"/>
<path d="" fill="#FFFFFF" transform="translate(0,0)"/>
<path d="" fill="#FFFFFF" transform="translate(0,0)"/>
<path d="" fill="#FFFFFF" transform="translate(0,0)"/>
<path d="" fill="#FFFFFF" transform="translate(0,0)"/>
<path d="" fill="#FFFFFF" transform="translate(0,0)"/>
<path d="" fill="#FFFFFF" transform="translate(0,0)"/>
<path d="" fill="#FFFFFF" transform="translate(0,0)"/>
<path d="" fill="#FFFFFF" transform="translate(0,0)"/>
<path d="" fill="#FFFFFF" transform="translate(0,0)"/>
<path d="" fill="#FFFFFF" transform="translate(0,0)"/>
<path d="" fill="#FFFFFF" transform="translate(0,0)"/>
<path d="" fill="#FFFFFF" transform="translate(0,0)"/>
<path d="" fill="#FFFFFF" transform="translate(0,0)"/>
<path d="" fill="#FFFFFF" transform="translate(0,0)"/>
<path d="" fill="#FFFFFF" transform="translate(0,0)"/>
<path d="" fill="#FFFFFF" transform="translate(0,0)"/>
<path d="" fill="#FFFFFF" transform="translate(0,0)"/>
<path d="" fill="#FFFFFF" transform="translate(0,0)"/>
<path d="" fill="#FFFFFF" transform="translate(0,0)"/>
<path d="" fill="#FFFFFF" transform="translate(0,0)"/>
<path d="" fill="#FFFFFF" transform="translate(0,0)"/>
<path d="" fill="#FFFFFF" transform="translate(0,0)"/>
<path d="" fill="#FFFFFF" transform="translate(0,0)"/>
<path d="" fill="#FFFFFF" transform="translate(0,0)"/>
<path d="" fill="#FFFFFF" transform="translate(0,0)"/>
<path d="" fill="#FFFFFF" transform="translate(0,0)"/>
<path d="" fill="#FFFFFF" transform="translate(0,0)"/>
<path d="" fill="#FFFFFF" transform="translate(0,0)"/>
<path d="" fill="#FFFFFF" transform="translate(0,0)"/>
<path d="" fill="#FFFFFF" transform="translate(0,0)"/>
<path d="" fill="#FFFFFF" transform="translate(0,0)"/>
<path d="" fill="#FFFFFF" transform="translate(0,0)"/>
<path d="" fill="#FFFFFF" transform="translate(0,0)"/>
<path d="" fill="#FFFFFF" transform="translate(0,0)"/>
<path d="" fill="#FFFFFF" transform="translate(0,0)"/>
<path d="" fill="#FFFFFF" transform="translate(0,0)"/>
<path d="" fill="#FFFFFF" transform="translate(0,0)"/>
<path d="" fill="#FFFFFF" transform="translate(0,0)"/>
<path d="" fill="#FFFFFF" transform="translate(0,0)"/>
<path d="" fill="#FFFFFF" transform="translate(0,0)"/>
</svg>
