<svg xmlns="http://www.w3.org/2000/svg" xmlns:xlink="http://www.w3.org/1999/xlink" width="500" zoomAndPan="magnify" viewBox="0 0 375 374.999991" height="500" preserveAspectRatio="xMidYMid meet" version="1.0"><defs><clipPath id="3fd09204be"><path d="M 14 24.53125 L 361 24.53125 L 361 351.753906 L 14 351.753906 Z M 14 24.53125 " clip-rule="nonzero"/></clipPath><clipPath id="02cb1bf0a1"><path d="M 328.289062 93.910156 L 282.464844 156.773438 C 281.949219 157.476562 281.804688 158.382812 282.074219 159.214844 C 282.34375 160.042969 282.992188 160.691406 283.820312 160.960938 L 357.847656 185.050781 C 359.820312 185.691406 360.898438 187.808594 360.261719 189.78125 L 327.140625 292.144531 C 326.835938 293.089844 326.167969 293.875 325.28125 294.328125 C 324.394531 294.78125 323.367188 294.859375 322.421875 294.554688 L 248.394531 270.464844 C 247.5625 270.195312 246.65625 270.339844 245.949219 270.851562 C 245.246094 271.363281 244.828125 272.183594 244.828125 273.054688 L 244.828125 348.003906 C 244.828125 350.074219 243.148438 351.753906 241.078125 351.753906 L 133.921875 351.753906 C 131.851562 351.753906 130.171875 350.074219 130.171875 348.003906 L 130.171875 273.054688 C 130.171875 272.183594 129.753906 271.363281 129.050781 270.851562 C 128.34375 270.339844 127.4375 270.195312 126.605469 270.464844 L 52.578125 294.554688 C 51.632812 294.859375 50.605469 294.78125 49.71875 294.328125 C 48.832031 293.875 48.164062 293.089844 47.859375 292.144531 L 14.738281 189.78125 C 14.101562 187.808594 15.179688 185.691406 17.152344 185.050781 L 91.179688 160.960938 C 92.007812 160.691406 92.65625 160.042969 92.925781 159.214844 C 93.195312 158.382812 93.050781 157.476562 92.535156 156.773438 L 46.710938 93.910156 C 45.492188 92.238281 45.859375 89.890625 47.535156 88.671875 L 134.226562 25.457031 C 135.03125 24.871094 136.035156 24.628906 137.015625 24.78125 C 138 24.9375 138.882812 25.472656 139.46875 26.277344 L 185.289062 89.136719 C 185.804688 89.84375 186.625 90.261719 187.5 90.261719 C 188.375 90.261719 189.195312 89.84375 189.710938 89.136719 L 235.53125 26.277344 C 236.117188 25.472656 237 24.9375 237.984375 24.78125 C 238.964844 24.628906 239.96875 24.871094 240.773438 25.457031 L 327.464844 88.671875 C 329.140625 89.890625 329.507812 92.238281 328.289062 93.910156 Z M 328.289062 93.910156 " clip-rule="nonzero"/></clipPath><clipPath id="a3902650f0"><path d="M 0 0.53125 L 346.960938 0.53125 L 346.960938 327.753906 L 0 327.753906 Z M 0 0.53125 " clip-rule="nonzero"/></clipPath><clipPath id="119459e8fd"><path d="M 314.289062 69.910156 L 268.464844 132.773438 C 267.949219 133.476562 267.804688 134.382812 268.074219 135.214844 C 268.34375 136.042969 268.992188 136.691406 269.820312 136.960938 L 343.847656 161.050781 C 345.820312 161.691406 346.898438 163.808594 346.261719 165.78125 L 313.140625 268.144531 C 312.835938 269.089844 312.167969 269.875 311.28125 270.328125 C 310.394531 270.78125 309.367188 270.859375 308.421875 270.554688 L 234.394531 246.464844 C 233.5625 246.195312 232.65625 246.339844 231.949219 246.851562 C 231.246094 247.363281 230.828125 248.183594 230.828125 249.054688 L 230.828125 324.003906 C 230.828125 326.074219 229.148438 327.753906 227.078125 327.753906 L 119.921875 327.753906 C 117.851562 327.753906 116.171875 326.074219 116.171875 324.003906 L 116.171875 249.054688 C 116.171875 248.183594 115.753906 247.363281 115.050781 246.851562 C 114.34375 246.339844 113.4375 246.195312 112.605469 246.464844 L 38.578125 270.554688 C 37.632812 270.859375 36.605469 270.78125 35.71875 270.328125 C 34.832031 269.875 34.164062 269.089844 33.859375 268.144531 L 0.738281 165.78125 C 0.101562 163.808594 1.179688 161.691406 3.152344 161.050781 L 77.179688 136.960938 C 78.007812 136.691406 78.65625 136.042969 78.925781 135.214844 C 79.195312 134.382812 79.050781 133.476562 78.535156 132.773438 L 32.710938 69.910156 C 31.492188 68.238281 31.859375 65.890625 33.535156 64.671875 L 120.226562 1.457031 C 121.03125 0.871094 122.035156 0.628906 123.015625 0.78125 C 124 0.9375 124.882812 1.472656 125.46875 2.277344 L 171.289062 65.136719 C 171.804688 65.84375 172.625 66.261719 173.5 66.261719 C 174.375 66.261719 175.195312 65.84375 175.710938 65.136719 L 221.53125 2.277344 C 222.117188 1.472656 223 0.9375 223.984375 0.78125 C 224.964844 0.628906 225.96875 0.871094 226.773438 1.457031 L 313.464844 64.671875 C 315.140625 65.890625 315.507812 68.238281 314.289062 69.910156 Z M 314.289062 69.910156 " clip-rule="nonzero"/></clipPath><clipPath id="10f97ccd8c"><rect x="0" width="347" y="0" height="328"/></clipPath></defs><g clip-path="url(#3fd09204be)"><g clip-path="url(#02cb1bf0a1)"><g transform="matrix(1, 0, 0, 1, 14, 24)"><g clip-path="url(#10f97ccd8c)"><g clip-path="url(#a3902650f0)"><g clip-path="url(#119459e8fd)"><path fill="#0097b2" d="M -0.414062 -0.753906 L 347.339844 -0.753906 L 347.339844 327.753906 L -0.414062 327.753906 Z M -0.414062 -0.753906 " fill-opacity="1" fill-rule="nonzero"/></g></g></g></g></g></g></svg>