<svg xmlns="http://www.w3.org/2000/svg" xmlns:xlink="http://www.w3.org/1999/xlink" width="500" zoomAndPan="magnify" viewBox="0 0 375 374.999991" height="500" preserveAspectRatio="xMidYMid meet" version="1.0"><defs><g/><clipPath id="fb9741718a"><rect x="0" width="277" y="0" height="133"/></clipPath><clipPath id="af342b2625"><rect x="0" width="204" y="0" height="133"/></clipPath><clipPath id="fdb44ca77e"><path d="M 251.09375 189.570312 L 330.636719 189.570312 L 330.636719 264.382812 L 251.09375 264.382812 Z M 251.09375 189.570312 " clip-rule="nonzero"/></clipPath><clipPath id="a8c134bf37"><path d="M 322.5 206.089844 L 313.570312 218.332031 C 313.265625 218.753906 313.175781 219.300781 313.339844 219.796875 C 313.5 220.296875 313.890625 220.6875 314.386719 220.847656 L 328.808594 225.539062 C 329.992188 225.925781 330.636719 227.195312 330.253906 228.378906 L 323.476562 249.328125 C 323.292969 249.894531 322.890625 250.367188 322.359375 250.636719 C 321.828125 250.910156 321.210938 250.957031 320.644531 250.773438 L 306.222656 246.082031 C 305.726562 245.917969 305.179688 246.003906 304.757812 246.3125 C 304.332031 246.621094 304.082031 247.109375 304.082031 247.632812 L 304.082031 262.132812 C 304.082031 262.730469 303.847656 263.300781 303.425781 263.722656 C 303.003906 264.144531 302.429688 264.382812 301.832031 264.382812 L 279.914062 264.382812 C 279.316406 264.382812 278.746094 264.144531 278.320312 263.722656 C 277.898438 263.300781 277.664062 262.730469 277.664062 262.132812 L 277.664062 247.632812 C 277.664062 247.109375 277.414062 246.621094 276.988281 246.3125 C 276.566406 246.003906 276.019531 245.917969 275.523438 246.082031 L 261.101562 250.773438 C 260.535156 250.957031 259.917969 250.910156 259.386719 250.636719 C 258.855469 250.367188 258.453125 249.894531 258.269531 249.328125 L 251.492188 228.378906 C 251.109375 227.195312 251.753906 225.925781 252.9375 225.539062 L 267.359375 220.847656 C 267.859375 220.6875 268.246094 220.296875 268.410156 219.796875 C 268.570312 219.300781 268.484375 218.753906 268.175781 218.332031 L 259.246094 206.089844 C 258.515625 205.082031 258.738281 203.675781 259.742188 202.945312 L 277.476562 190.011719 C 277.960938 189.660156 278.5625 189.511719 279.152344 189.605469 C 279.742188 189.699219 280.269531 190.019531 280.621094 190.503906 L 289.546875 202.75 C 289.855469 203.171875 290.347656 203.421875 290.875 203.421875 C 291.398438 203.421875 291.890625 203.171875 292.199219 202.75 L 301.125 190.503906 C 301.476562 190.019531 302.003906 189.699219 302.59375 189.605469 C 303.183594 189.511719 303.785156 189.660156 304.269531 190.011719 L 322.007812 202.945312 C 323.011719 203.675781 323.230469 205.082031 322.5 206.089844 Z M 322.5 206.089844 " clip-rule="nonzero"/></clipPath><clipPath id="e26a51f8c3"><path d="M 0.09375 0.570312 L 79.636719 0.570312 L 79.636719 75.382812 L 0.09375 75.382812 Z M 0.09375 0.570312 " clip-rule="nonzero"/></clipPath><clipPath id="ca93088413"><path d="M 71.5 17.089844 L 62.570312 29.332031 C 62.265625 29.753906 62.175781 30.300781 62.339844 30.796875 C 62.5 31.296875 62.890625 31.6875 63.386719 31.847656 L 77.808594 36.539062 C 78.992188 36.925781 79.636719 38.195312 79.253906 39.378906 L 72.476562 60.328125 C 72.292969 60.894531 71.890625 61.367188 71.359375 61.636719 C 70.828125 61.910156 70.210938 61.957031 69.644531 61.773438 L 55.222656 57.082031 C 54.726562 56.917969 54.179688 57.003906 53.757812 57.3125 C 53.332031 57.621094 53.082031 58.109375 53.082031 58.632812 L 53.082031 73.132812 C 53.082031 73.730469 52.847656 74.300781 52.425781 74.722656 C 52.003906 75.144531 51.429688 75.382812 50.832031 75.382812 L 28.914062 75.382812 C 28.316406 75.382812 27.746094 75.144531 27.320312 74.722656 C 26.898438 74.300781 26.664062 73.730469 26.664062 73.132812 L 26.664062 58.632812 C 26.664062 58.109375 26.414062 57.621094 25.988281 57.3125 C 25.566406 57.003906 25.019531 56.917969 24.523438 57.082031 L 10.101562 61.773438 C 9.535156 61.957031 8.917969 61.910156 8.386719 61.636719 C 7.855469 61.367188 7.453125 60.894531 7.269531 60.328125 L 0.492188 39.378906 C 0.109375 38.195312 0.753906 36.925781 1.9375 36.539062 L 16.359375 31.847656 C 16.859375 31.6875 17.246094 31.296875 17.410156 30.796875 C 17.570312 30.300781 17.484375 29.753906 17.175781 29.332031 L 8.246094 17.089844 C 7.515625 16.082031 7.738281 14.675781 8.742188 13.945312 L 26.476562 1.011719 C 26.960938 0.660156 27.5625 0.511719 28.152344 0.605469 C 28.742188 0.699219 29.269531 1.019531 29.621094 1.503906 L 38.546875 13.75 C 38.855469 14.171875 39.347656 14.421875 39.875 14.421875 C 40.398438 14.421875 40.890625 14.171875 41.199219 13.75 L 50.125 1.503906 C 50.476562 1.019531 51.003906 0.699219 51.59375 0.605469 C 52.183594 0.511719 52.785156 0.660156 53.269531 1.011719 L 71.007812 13.945312 C 72.011719 14.675781 72.230469 16.082031 71.5 17.089844 Z M 71.5 17.089844 " clip-rule="nonzero"/></clipPath><clipPath id="3ac3d97271"><rect x="0" width="80" y="0" height="76"/></clipPath></defs><g transform="matrix(1, 0, 0, 1, 49, 68)"><g clip-path="url(#fb9741718a)"><g fill="#000000" fill-opacity="1"><g transform="translate(1.097403, 111.893466)"><g><path d="M 2.1875 -72.734375 L 3.296875 0 L 24.140625 -0.65625 L 24.90625 -57.046875 L 50.90625 -56.28125 L 50.25 0 L 64.5 -0.65625 L 63.078125 -55.1875 L 92.8125 -53.3125 L 92.8125 -0.65625 L 114.09375 0.65625 L 112.109375 -69.109375 Z M 2.1875 -72.734375 "/></g></g></g><g fill="#000000" fill-opacity="1"><g transform="translate(117.379088, 111.893466)"><g><path d="M 24.796875 -42.78125 L 24.796875 -55.1875 L 78.328125 -54.625 L 78.328125 -73.9375 L 2.1875 -75.03125 L 2.96875 -0.21875 L 76.25 0.21875 L 75.578125 -17.875 L 25.34375 -19.203125 L 25.5625 -32.46875 L 66.8125 -31.8125 L 67.46875 -42.015625 Z M 24.796875 -42.78125 "/></g></g></g><g fill="#000000" fill-opacity="1"><g transform="translate(197.898666, 111.893466)"><g><path d="M 74.703125 -51.5625 L 75.8125 -72.953125 L 2.1875 -73.828125 L 2.1875 -54.84375 L 28.1875 -53.859375 L 29.515625 0.4375 L 51.015625 -0.21875 L 49.359375 -53.09375 Z M 74.703125 -51.5625 "/></g></g></g></g></g><g transform="matrix(1, 0, 0, 1, 51, 152)"><g clip-path="url(#af342b2625)"><g fill="#000000" fill-opacity="1"><g transform="translate(0.316734, 111.213416)"><g><path d="M 2.1875 -75.578125 L 4.390625 0.546875 L 23.59375 0 L 24.140625 -34.671875 L 33.890625 -34.453125 L 60.5625 0.984375 L 85.234375 0.546875 L 57.8125 -34.890625 L 75.03125 -35.21875 L 76.25 -76.90625 Z M 47.171875 -47.5 L 23.140625 -47.390625 L 23.140625 -60.453125 L 46.734375 -60.671875 Z M 47.171875 -47.5 "/></g></g></g><g fill="#000000" fill-opacity="1"><g transform="translate(87.734394, 111.213416)"><g><path d="M 3.625 -77.5625 L 2.1875 -0.109375 L 25.453125 -0.109375 L 25.453125 -77.671875 Z M 3.625 -77.5625 "/></g></g></g><g fill="#000000" fill-opacity="1"><g transform="translate(115.374606, 111.213416)"><g><path d="M 4.28125 -68.671875 L 32.46875 -35.984375 L 2.1875 -0.21875 L 28.859375 0 L 45.203125 -21.5 L 62.421875 0 L 85.671875 0 L 56.9375 -36.53125 L 82.5 -75.03125 L 57.046875 -75.03125 L 43.65625 -53.53125 L 29.84375 -69.984375 Z M 4.28125 -68.671875 "/></g></g></g></g></g><g clip-path="url(#fdb44ca77e)"><g clip-path="url(#a8c134bf37)"><g transform="matrix(1, 0, 0, 1, 251, 189)"><g clip-path="url(#3ac3d97271)"><g clip-path="url(#e26a51f8c3)"><g clip-path="url(#ca93088413)"><path fill="#0097b2" d="M -0.203125 -0.316406 L 79.929688 -0.316406 L 79.929688 75.382812 L -0.203125 75.382812 Z M -0.203125 -0.316406 " fill-opacity="1" fill-rule="nonzero"/></g></g></g></g></g></g></svg>